<svg width="63" height="103" viewBox="0 0 63 103" fill="none" xmlns="http://www.w3.org/2000/svg">
<path d="M0 38.4349L16.2273 21.7606L28.2273 33.9954L24.0682 38.4349L22.8068 37.1765L19.3295 40.7071L24.9886 46.5798H31.9432L25.4318 39.7982L29.5909 35.4286L58.7045 65.2817H26.2159L0 38.4349Z" fill="black"/>
<path d="M63 26.8252L46.7386 43.5211L34.7727 31.2612L38.9318 26.8252L40.159 28.1176L43.6704 24.5898L38.0113 18.6868H31.0568L37.5681 25.463L33.375 29.864L4.29541 0H36.75L63 26.8252Z" fill="url(#paint0_linear)"/>
<path d="M6.81353 87.2034L5.88908 91.1499H0.171143L4.82766 74.3163C5.06734 73.4083 5.8206 72.8146 6.71082 72.8146H11.8467C12.7711 72.8146 13.5244 73.4083 13.7298 74.3163L18.3864 91.1499H12.6684L11.744 87.2034H6.81353ZM9.92929 79.2407C9.79234 78.5771 9.65538 77.8088 9.62114 77.1452H8.90212C8.83364 77.8088 8.73093 78.5771 8.59397 79.2407L7.70375 83.1522H10.7853L9.92929 79.2407Z" fill="black"/>
<path d="M25.1316 85.6318C25.1316 86.1906 25.5425 86.5748 26.2273 86.5748H32.2534L32.5273 90.8705C29.8566 91.2547 26.7066 91.2547 23.7621 91.2547C21.1599 91.2547 19.4822 89.5434 19.4822 87.0987V72.8495H25.1316V85.6318Z" fill="black"/>
<path d="M47.4554 90.9054C44.8533 91.2547 41.2239 91.2547 38.1081 91.2547C35.6429 91.2547 33.8967 89.5434 33.8967 87.0987V76.9007C33.8967 74.4211 35.6429 72.7448 38.1081 72.7448C41.1897 72.7448 44.8533 72.7448 47.4554 73.094L47.1815 77.1452H40.6076C39.9571 77.1452 39.5462 77.5294 39.5462 78.0882V79.8693H46.2571V83.711H39.5462V85.9112C39.5462 86.47 39.9571 86.8542 40.6076 86.8542H47.1815L47.4554 90.9054Z" fill="black"/>
<path d="M56.2207 77.1452C55.5017 77.1452 55.0908 77.5294 55.0908 78.0882V80.2535H61.5278V84.0602H55.125V91.1499H49.4756V76.9007C49.4756 74.4211 51.256 72.7448 53.7555 72.7448C56.7343 72.7448 60.3294 72.7448 62.7946 73.1289L62.5207 77.1801H56.2207V77.1452Z" fill="black"/>
<path d="M0.272461 98.9254C0.613001 98.8859 0.987596 98.8859 1.39624 98.8859C2.3157 98.8859 2.65624 99.4002 2.65624 100.864C2.65624 102.328 2.3157 102.842 1.39624 102.842C0.953542 102.842 0.578947 102.803 0.272461 102.803V98.9254ZM0.578947 102.447C0.817326 102.447 1.08976 102.447 1.39624 102.447C2.07733 102.447 2.3157 102.011 2.3157 100.825C2.3157 99.6376 2.07733 99.1628 1.39624 99.1628C1.08976 99.1628 0.817326 99.1628 0.578947 99.1628V102.447Z" fill="black"/>
<path d="M8.44535 102.723C8.00265 102.763 7.49184 102.763 7.04913 102.763C6.70859 102.763 6.47021 102.525 6.47021 102.13V99.5579C6.47021 99.1622 6.70859 98.9248 7.04913 98.9248C7.52589 98.9248 8.00265 98.9248 8.44535 98.9644L8.4113 99.2414H7.08319C6.87886 99.2414 6.7767 99.36 6.7767 99.637V100.587H8.24103V100.864H6.7767V102.05C6.7767 102.327 6.87886 102.446 7.08319 102.446H8.4113L8.44535 102.723Z" fill="black"/>
<path d="M13.4514 102.644C13.4173 102.723 13.3833 102.763 13.3151 102.763H12.9746C12.9065 102.763 12.8724 102.723 12.8384 102.644L11.7827 98.9248H12.1233L12.9746 102.05C13.0087 102.209 13.0427 102.327 13.0768 102.486H13.213C13.247 102.367 13.2811 102.209 13.3151 102.05L14.1665 98.9248H14.507L13.4514 102.644Z" fill="black"/>
<path d="M20.0579 102.723C19.6152 102.763 19.1044 102.763 18.6617 102.763C18.3211 102.763 18.0828 102.525 18.0828 102.13V99.5579C18.0828 99.1622 18.3211 98.9248 18.6617 98.9248C19.1384 98.9248 19.6152 98.9248 20.0579 98.9644L20.0238 99.2414H18.6957C18.4914 99.2414 18.3893 99.36 18.3893 99.637V100.587H19.8536V100.864H18.3893V102.05C18.3893 102.327 18.4914 102.446 18.6957 102.446H20.0238L20.0579 102.723Z" fill="black"/>
<path d="M24.1103 102.011C24.1103 102.288 24.2465 102.407 24.4509 102.407H25.6768V102.683C25.2682 102.723 24.8255 102.723 24.3827 102.723C23.9741 102.723 23.7698 102.446 23.7698 102.05V98.8853H24.0763V102.011H24.1103Z" fill="black"/>
<path d="M31.6023 100.824C31.6023 102.288 31.2617 102.802 30.3423 102.802C29.4228 102.802 29.0823 102.288 29.0823 100.824C29.0823 99.36 29.4228 98.8457 30.3423 98.8457C31.2617 98.8457 31.6023 99.36 31.6023 100.824ZM29.3888 100.824C29.3888 102.05 29.6271 102.486 30.3423 102.486C31.0574 102.486 31.2958 102.05 31.2958 100.824C31.2958 99.5974 31.0574 99.1622 30.3423 99.1622C29.6271 99.1622 29.3888 99.5974 29.3888 100.824Z" fill="black"/>
<path d="M35.4163 98.9248C35.7568 98.8853 35.9952 98.8853 36.506 98.8853C37.2552 98.8853 37.5276 99.1226 37.5276 100.072C37.5276 100.982 37.2552 101.259 36.54 101.259C36.1995 101.259 35.9271 101.22 35.7227 101.22V102.802H35.4163V98.9248ZM36.506 100.903C37.0168 100.903 37.2211 100.745 37.2211 100.033C37.2211 99.36 37.0509 99.1622 36.506 99.1622C36.1995 99.1622 35.893 99.1622 35.7227 99.1622V100.863H36.506V100.903Z" fill="black"/>
<path d="M44.3042 98.9248C44.4064 98.9248 44.4405 99.004 44.4405 99.0831L44.5767 102.763H44.2702L44.134 99.2414H44.0318L43.1805 102.248C43.1464 102.327 43.1124 102.367 43.0442 102.367H42.7378C42.6696 102.367 42.6015 102.327 42.6015 102.248L41.7502 99.2414H41.648L41.5118 102.763H41.2053L41.3415 99.0831C41.3415 98.9644 41.3756 98.9248 41.4778 98.9248H41.8524C41.9205 98.9248 41.9545 98.9644 41.9886 99.0435L42.7037 101.536C42.7378 101.694 42.8059 101.892 42.8399 102.05H42.9421C42.9761 101.892 43.0442 101.694 43.0783 101.536L43.7934 99.0435C43.8275 98.9644 43.8615 98.9248 43.9297 98.9248H44.3042Z" fill="black"/>
<path d="M50.4002 102.723C49.9575 102.763 49.4467 102.763 49.004 102.763C48.6634 102.763 48.425 102.525 48.425 102.13V99.5579C48.425 99.1622 48.6634 98.9248 49.004 98.9248C49.4807 98.9248 49.9575 98.9248 50.4002 98.9644L50.3661 99.2414H49.038C48.8337 99.2414 48.7315 99.36 48.7315 99.637V100.587H50.1959V100.864H48.7315V102.05C48.7315 102.327 48.8337 102.446 49.038 102.446H50.3661L50.4002 102.723Z" fill="black"/>
<path d="M56.5979 102.565C56.5979 102.683 56.5638 102.723 56.4617 102.723H56.1211C56.053 102.723 55.9849 102.683 55.9849 102.604L54.7249 99.7161C54.6568 99.5974 54.5887 99.3996 54.5546 99.2413H54.4525C54.4525 99.3996 54.4525 99.5579 54.4525 99.7161V102.723H54.146V99.0435C54.146 98.9248 54.18 98.8853 54.2822 98.8853H54.6228C54.6909 98.8853 54.759 98.9248 54.759 99.0039L55.9849 101.853C56.053 102.011 56.1211 102.209 56.1892 102.367H56.2914C56.2914 102.169 56.2914 102.011 56.2914 101.813V98.8853H56.5979V102.565Z" fill="black"/>
<path d="M61.6037 99.2414V102.763H61.2973V99.2414H60.2075V98.9248H62.7275V99.2414H61.6037Z" fill="black"/>
<path d="M63 95.531H0V96.2317H63V95.531Z" fill="black"/>
<defs>
<linearGradient id="paint0_linear" x1="33.6381" y1="43.5142" x2="33.6381" y2="0.00887365" gradientUnits="userSpaceOnUse">
<stop stop-color="#2B5972"/>
<stop offset="1" stop-color="#427FA2"/>
</linearGradient>
</defs>
</svg>
